<svg height="20" viewBox="0 0 13 20" width="13" xmlns="http://www.w3.org/2000/svg"><path d="m.22557615 20.5019406c-.31039354.2825292-.29854354.827222.0237 1.0968639l6.59395144 5.4843749c.29747322.2854553.84712208.2638781 1.11967207-.0439674.27254999-.3078824.20963032-.836045-.12817113-1.0760182l-5.02910164-4.1796524h15.67258021c.4038939.0055421.7754105-.3484876.7754105-.7389363 0-.3904339-.3715166-.7444673-.7754105-.7389474h-15.8039623l4.86182552-4.3990459c.22213015-.1983741.30324531-.5309226.19621305-.8043109-.10703225-.2733884-.39559886-.4707317-.69792675-.4773009-.21364403.0090521-.41933709.1004303-.53753128.2078289z" fill="#fff" fill-rule="evenodd" transform="matrix(0 1 -1 0 27.5 0)"/></svg>